# xmcd CD database file
#
# Track frame offsets:
#	150
#	8932
#	29932
#	51311
#	69824
#	88943
#	102617
#	125745
#	138870
#	149557
#	175402
#	188596
#
# Disc length: 2632 seconds
#
# Revision: 3
# Processed by: cddbd v1.5.2PL0 Copyright (c) Steve Scherf et al.
# Submitted via: CDex 1.70beta2
#
DISCID=b70a460c
DTITLE=רות דולורס וייס - בעברית
DYEAR=2008
DGENRE=Jazz
TTITLE0=גיליתי שמש
TTITLE1=באר־שבע
TTITLE2=הלילה שלו
TTITLE3=קיץ
TTITLE4=שיר אהבה
TTITLE5=שיר תקווה
TTITLE6=משירי ארץ אהבתי
TTITLE7=היה נא טוב אליי
TTITLE8=אשקלון
TTITLE9=שיר נחמה
TTITLE10=קרב
TTITLE11=קהלת א', 2-9
EXTD=YEAR: 2008
EXTT0=
EXTT1=
EXTT2=
EXTT3=
EXTT4=
EXTT5=
EXTT6=
EXTT7=
EXTT8=
EXTT9=
EXTT10=
EXTT11=
PLAYORDER=
